<svg id="Layer_1" data-name="Layer 1" xmlns="http://www.w3.org/2000/svg" width="71.7785" height="67.1662" viewBox="0 0 71.7785 67.1662"><defs><style>.cls-1{fill:#f36;}.cls-2{fill:#fcc;}</style></defs><polygon class="cls-1" points="2.235 31.398 35.889 64.677 69.288 31.398 69.288 11.115 63.877 7.248 60.253 2.49 44.598 2.49 40.491 7.248 35.762 12.709 35.03 10.825 31.029 7.248 26.172 2.49 11.112 2.49 6.992 7.781 2.235 11.26 2.235 31.398"/><path class="cls-1" d="M40.0877,13.887" transform="translate(-1.8605 -4.2997)"/><polygon class="cls-2" points="61.726 10.564 61.726 19.78 52.638 19.78 52.638 15.172 48.03 15.172 48.03 10.564 61.726 10.564"/><path d="M68.6589,13.887h4.98v23.96h-4.98l.07.0751v-24.11Z" transform="translate(-1.8605 -4.2997)"/><path d="M6.3306,37.8464h-4.47V13.887h4.47l-.07-.0751v24.11Z" transform="translate(-1.8605 -4.2997)"/><path d="M44.6946,9.279V4.3H64.051V9.279l.0751-.07H44.6194Z" transform="translate(-1.8605 -4.2997)"/><path d="M11.45,9.2789V4.3H30.295V9.279l.0751-.07H11.375Z" transform="translate(-1.8605 -4.2997)"/><path d="M35.4145,13.887h4.6721l-.07-.0751v9.5716H35.4846V13.8119Z" transform="translate(-1.8605 -4.2997)"/><path d="M64.0509,42.4545v5.11h-5.11l.07.0751V42.5246H64.126Z" transform="translate(-1.8605 -4.2997)"/><path d="M49.73,56.7752v5.11h-5.11l.07.0751V56.8453h5.1145Z" transform="translate(-1.8605 -4.2997)"/><path d="M6.3306,13.887V9.279l5.12,0-.0751-.07v4.6031H6.2605Z" transform="translate(-1.8605 -4.2997)"/><path d="M30.295,9.279h5.1195v4.608l.07-.0751H30.37V9.2088Z" transform="translate(-1.8605 -4.2997)"/><path d="M11.4451,42.45H6.3306V37.8464l-.07.0751H11.375v4.6031Z" transform="translate(-1.8605 -4.2997)"/><path d="M16.0482,47.564H11.4451V42.45l-.07.0751h4.6031v5.1146Z" transform="translate(-1.8605 -4.2997)"/><path d="M25.7658,56.77h-5.11V52.1721l-.0751.07h5.1146v4.6031Z" transform="translate(-1.8605 -4.2997)"/><path d="M30.3689,61.8847H25.7658V56.77l-.07.0751h4.6031V61.96Z" transform="translate(-1.8605 -4.2997)"/><path d="M35.4834,66.4878H30.3689V61.8847l-.07.0751h5.1145v4.6031Z" transform="translate(-1.8605 -4.2997)"/><path d="M40.0126,66.4928V71.466H35.4834V66.4878l-.07.0751h4.6744Z" transform="translate(-1.8605 -4.2997)"/><path d="M40.0866,13.887V9.279h4.608l-.0752-.07v4.6031h-4.603Z" transform="translate(-1.8605 -4.2997)"/><path d="M64.051,9.279h4.6079v4.608l.07-.0751h-4.603V9.2088Z" transform="translate(-1.8605 -4.2997)"/><path d="M68.6589,37.8465v4.608h-4.608l.0751.07v-4.603h4.6031Z" transform="translate(-1.8605 -4.2997)"/><path d="M20.6562,52.1721h-4.608V47.564l-.07.0752h4.603v4.603Z" transform="translate(-1.8605 -4.2997)"/><path d="M58.9413,47.5641v4.603h-4.603l.07.0751v-4.603h4.6031Z" transform="translate(-1.8605 -4.2997)"/><path d="M54.3383,52.1671v4.6081H49.73l.0751.07V52.2422h4.6031Z" transform="translate(-1.8605 -4.2997)"/><path d="M44.6206,61.8848v4.608h-4.608l.0751.07V61.96h4.6031Z" transform="translate(-1.8605 -4.2997)"/></svg>