<svg id="Layer_1" data-name="Layer 1" xmlns="http://www.w3.org/2000/svg" width="100" height="60" viewBox="0 0 100 60"><defs><style>.cls-1{fill:#c33701;}</style></defs><path class="cls-1" d="M95.8154,45.5229H4.1851V14.477h91.63ZM5.2085,44.4994H94.792V15.5H5.2085Z"/><path class="cls-1" d="M19.66,30.8965h.7625l.087-.0154c.151-.0281.5169-.1023,1.1694-.2584a4.4338,4.4338,0,0,0,2.3234-1.5609,4.1675,4.1675,0,0,0,.8649-2.6048,4.16,4.16,0,0,0-1.3818-3.3316,5.697,5.697,0,0,0-3.8433-1.1924H14.6475V37.3063h1.31v-6.41h2.0752l5.2558,6.41h1.5839Zm-3.7026-7.8658h3.6642a4.2857,4.2857,0,0,1,2.9017.8982A3.1717,3.1717,0,0,1,23.56,26.457a3.1562,3.1562,0,0,1-.9928,2.41,3.6852,3.6852,0,0,1-2.63.9314h-3.979Z"/><path class="cls-1" d="M34.5985,21.933H33.3652L27.5465,37.3063H40.4172Zm-5.376,14.5135,1.2691-3.4595.4018-1.0977,3.0833-8.3724L37.06,31.8893l.412,1.0977,1.2768,3.4595Z"/><path class="cls-1" d="M69.6925,21.933l-.21.34.3224-.34Z"/><polygon class="cls-1" points="70.557 37.306 68.974 37.306 64.148 31.421 60.55 37.306 59.25 37.306 59.25 21.933 60.55 21.933 60.55 35.129 63.347 30.444 64.038 29.287 65.593 26.68 68.426 21.933 69.948 21.933 69.739 22.273 64.844 30.28 70.557 37.306"/><path class="cls-1" d="M49.8951,21.933H48.6592L42.84,37.3063H55.7112ZM44.519,36.4465l1.2692-3.4595.3991-1.0977,3.0834-8.3724,3.0834,8.3724.4119,1.0977,1.2769,3.4595Z"/><path class="cls-1" d="M79.8535,21.933H78.6176L72.8015,37.3063h1.3613l.0051-.0128.0384.0128H85.67Zm-5.376,14.5135,1.2692-3.4595.3991-1.0977,3.0834-8.3724,3.0834,8.3724.4119,1.0977,1.2769,3.4595Z"/></svg>